<?xml version="1.0" encoding="UTF-8"?>
<svg id="_图层_1" data-name="图层 1" xmlns="http://www.w3.org/2000/svg" viewBox="0 0 566.93 566.93">
  <defs>
    <style>
      .cls-1 {
        fill: #010101;
        stroke-width: 0px;
      }
    </style>
  </defs>
  <path class="cls-1" d="m509.22,214.19c-52.32-52.31-104.65-104.62-156.98-156.92-6.39-6.38-9.31-6.38-15.85.16-89.18,89.15-178.39,178.27-267.51,267.48-22.12,22.13-22.02,54.93.25,77.34,31.92,32.12,64,64.08,96.09,96.03,10.49,10.45,23.22,15.89,38.06,16.15,15.68-.13,28.71-6.15,39.7-17.14,88.72-88.75,177.48-177.46,266.21-266.2,7.17-7.17,7.16-9.76.03-16.89Zm-129.93-108.33c27.11,27.22,54.3,54.36,81.49,81.49,1.7,1.7,2.85,2.75.38,5.2-67.5,67.32-134.9,134.75-202.31,202.16-.33.33-.75.59-1.38,1.08-20.48-20.53-40.96-41.05-61.44-61.58-7.21-7.22-14.32-14.54-21.68-21.61-2.53-2.43-2.98-3.73-.16-6.55,60.42-60.21,120.72-120.55,181.04-180.86,6.43-6.43,12.93-12.77,19.24-19.32,1.88-1.95,2.9-1.95,4.83-.01Zm-237.76,167.77c60.18-60.04,120.27-120.16,180.38-180.26,6.65-6.65,13.3-13.31,19.98-19.94.76-.76,1.27-1.87,3.48-2.14.3.45.8,1.51,1.57,2.29,5.38,5.45,10.68,10.98,16.29,16.18,2.54,2.35,2.22,3.59-.1,5.89-32.55,32.39-64.98,64.9-97.45,97.37-34.16,34.16-68.36,68.29-102.44,102.53-2.32,2.33-3.51,2.65-5.87.11-5.09-5.5-10.36-10.86-15.92-15.87-2.79-2.52-2.34-3.73.08-6.14Zm134.92,168.64c-15.7,15.4-31.16,31.06-46.84,46.49-7.13,7.02-16,10.11-25.44,10.35-11.02-.11-20.13-3.74-27.57-11.15-27.54-27.45-55.01-54.98-82.5-82.48-4.96-4.96-9.99-9.85-14.86-14.89-14.93-15.44-15.65-37.72-.89-53.29,15.46-16.31,31.7-31.86,47.49-47.85,2.25-2.28,3.13-.59,4.46.73,15.78,15.77,31.57,31.53,47.35,47.3,32.9,32.9,65.76,65.85,98.77,98.66,2.54,2.52,2.53,3.67.03,6.13Zm216.68-216.74c-30.74,30.58-61.37,61.27-92.03,91.93-35.96,35.95-71.93,71.9-107.9,107.85-.98.98-2.02,1.9-3.32,3.12-.74-.9-1.29-1.7-1.96-2.38-5.51-5.54-10.89-11.22-16.62-16.52-2.57-2.38-2.09-3.55.16-5.79,49.23-49.09,98.37-98.27,147.53-147.43,17.48-17.48,34.99-34.91,52.37-52.49,2.29-2.32,3.54-2.65,5.9-.08,5.07,5.51,10.37,10.83,15.87,15.91,2.51,2.32,2.35,3.54,0,5.88Z"/>
  <path class="cls-1" d="m341.93,241.74c-3.75-3.45-7.21-7.2-10.84-10.78-2.71-2.68-5.54-7.46-8.23-7.4-3.52.08-5.95,5.09-9.01,7.8-1.55,1.37-1.99,2.31-.21,4.02,6.09,5.84,12,11.88,17.98,17.83.55.55,1.13,1.07,1.78,1.7.66-.57,1.28-1.06,1.84-1.61,2.27-2.24,4.41-4.63,6.82-6.7,2.16-1.86,1.81-3.06-.14-4.86Z"/>
  <path class="cls-1" d="m266.14,296.03c-2.81-2.75-5.81-7.61-8.56-7.5-2.96.12-5.62,5.07-8.61,7.68-1.96,1.7-1.7,2.78.03,4.45,5.85,5.64,11.57,11.41,17.3,17.16.65.65,1.06,1.54,1.63,2.38,1.3-1.07,2.08-1.62,2.75-2.28,2.27-2.24,4.38-4.65,6.78-6.73,1.84-1.6,1.48-2.56-.11-4.06-3.82-3.6-7.44-7.43-11.2-11.1Z"/>
  <path class="cls-1" d="m346.19,202.86c-.54-.54-1.14-1.03-1.91-1.72-.82.76-1.51,1.37-2.16,2.02-2.14,2.14-4.15,4.43-6.44,6.4-1.9,1.64-1.97,2.73-.08,4.49,3.85,3.57,7.48,7.39,11.21,11.1,8.69,8.67,8.63,8.61,17-.2,1.71-1.8,1.86-2.82.02-4.58-5.96-5.75-11.76-11.66-17.63-17.5Z"/>
  <path class="cls-1" d="m237.99,311.24c-.55-.55-1.15-1.06-1.98-1.8-.63.59-1.19,1.08-1.72,1.6-2.38,2.35-4.67,4.8-7.16,7.03-1.76,1.57-1.59,2.62.07,4.18,3.83,3.6,7.47,7.4,11.18,11.11,8.96,8.96,8.9,8.9,17.37-.39,1.6-1.76,1.44-2.67-.13-4.2-5.94-5.77-11.76-11.67-17.62-17.52Z"/>
  <path class="cls-1" d="m309.25,252.57c-2.71-2.65-5.74-7.48-8.22-7.24-3.08.3-5.63,4.97-8.63,7.5-2.22,1.88-1.69,3.07.17,4.8,3.94,3.68,7.66,7.6,11.5,11.4q7.92,7.84,15.87-.33c.85-.88,1.65-1.81,3.01-3.29-.98-.65-1.88-1.08-2.56-1.74-3.74-3.67-7.39-7.43-11.14-11.09Z"/>
  <path class="cls-1" d="m287.98,274.58c-9.06-9.17-9.01-9.13-17.67.29-1.4,1.52-1.5,2.3,0,3.74,4.14,3.98,8.11,8.13,12.19,12.17,2.49,2.46,5.28,6.96,7.54,6.73,2.87-.3,5.35-4.45,7.98-6.96.9-.86,1.72-1.79,2.74-2.87-.75-.87-1.31-1.61-1.96-2.27-3.59-3.62-7.22-7.2-10.81-10.83Z"/>
  <path class="cls-1" d="m390.19,181.83c2.83,2.65,5.25,7.8,8.5,7.36,3.16-.43,5.64-5.15,8.61-7.78,1.79-1.59,1.59-2.6-.01-4.16-5.92-5.76-11.72-11.66-17.59-17.47-.63-.63-1.09-1.62-2.53-1.47-.42.37-1.02.87-1.58,1.42-2.26,2.23-4.41,4.59-6.79,6.68-1.67,1.47-1.78,2.43-.1,4.02,3.93,3.71,7.57,7.71,11.51,11.41Z"/>
  <path class="cls-1" d="m356.66,188.67c-1.65,1.54-.64,2.38.43,3.44,3.85,3.81,7.67,7.66,11.51,11.49q8.59,8.56,17-.47c1.45-1.55,1.95-2.36.13-4.11-5.99-5.73-11.75-11.68-17.62-17.54-.67-.67-1.43-1.24-2.15-1.85-.45.35-.85.61-1.18.94-2.71,2.7-5.32,5.5-8.12,8.1Z"/>
</svg>